<svg xmlns:dc="http://purl.org/dc/elements/1.1/" xmlns:cc="http://creativecommons.org/ns#" xmlns:rdf="http://www.w3.org/1999/02/22-rdf-syntax-ns#" xmlns:svg="http://www.w3.org/2000/svg" xmlns="http://www.w3.org/2000/svg" xmlns:xlink="http://www.w3.org/1999/xlink" id="svg50745" viewBox="0 0 1024 768" height="768px" width="1024px" version="1.1">
  <metadata id="metadata50751">
    <rdf:rdf>
      <cc:work rdf:about="">
        <dc:format>image/svg+xml</dc:format>
        <dc:type rdf:resource="http://purl.org/dc/dcmitype/StillImage"></dc:type>
      </cc:work>
    </rdf:rdf>
  </metadata>
  <defs id="defs50749"></defs>
  <linearGradient spreadMethod="pad" y2="30%" x2="-10%" y1="120%" x1="30%" id="3d_gradient2-logo-62ee2961-06e2-4f27-a9d6-1162d5d5be95">
    <stop id="stop50726" stop-opacity="1" stop-color="#ffffff" offset="0%"></stop>
    <stop id="stop50728" stop-opacity="1" stop-color="#000000" offset="100%"></stop>
  </linearGradient>
  <linearGradient gradientTransform="rotate(-30)" spreadMethod="pad" y2="30%" x2="-10%" y1="120%" x1="30%" id="3d_gradient3-logo-62ee2961-06e2-4f27-a9d6-1162d5d5be95">
    <stop id="stop50731" stop-opacity="1" stop-color="#ffffff" offset="0%"></stop>
    <stop id="stop50733" stop-opacity="1" stop-color="#cccccc" offset="50%"></stop>
    <stop id="stop50735" stop-opacity="1" stop-color="#000000" offset="100%"></stop>
  </linearGradient>
  <g id="logo-group">
    <image xlink:href="" id="container" x="272" y="144" width="480" height="480" style="display: none;" transform="translate(0 0)"></image>
    <g id="logo-center" transform="translate(1.1368683772161603e-13 0)">
      <image xlink:href="" id="icon_container" style="display: none;" x="0" y="0"></image>
      <g id="slogan" style="font-style:oblique;font-weight:600;font-size:32px;line-height:1;font-family:'Nunito Sans';font-variant-ligatures:none;text-align:center;text-anchor:middle" transform="translate(0 0)"></g>
      <g id="title" style="font-style:normal;font-weight:normal;font-size:72px;line-height:1;font-family:'Brandmark Sans 30 Color';font-variant-ligatures:normal;text-align:center;text-anchor:middle" transform="translate(0 0)">
        <g id="path50754" aria-label="V" transform="translate(0 303.472) translate(290.66299999999995 51.8432) scale(0.96) translate(-297.93556 46.08)"> <path class="c1" d="M85.88966,76.23584l12.81689,37.2272h2.59229l12.81689-37.2272h9.93701l-15.84131,46.08398H91.79396 L75.95265,76.23584H85.88966z" transform="translate(221.98291 -122.31584)" stroke-width="0" stroke-linejoin="miter" stroke-miterlimit="2" fill="#858585" stroke="#858585"></path> </g>
        <g id="path50756" aria-label="e" transform="translate(0 303.472) translate(336.60800479999995 59.792) scale(0.96) translate(-342.79494 37.8)"> <path class="c1" d="M80.92043,103.45419c0-12.60107,6.84058-18.93762,19.08179-18.93762 c12.24097,0,19.08154,6.33655,19.08154,18.93762v3.2403H89.92128c0.93604,4.32037,3.96033,6.76855,7.92065,6.76855h4.32043 c2.95215,0,5.32837-1.3681,6.76855-3.81635h9.43286c-1.51221,9.00079-8.35278,13.10516-18.36157,13.10516 C87.2571,122.75185,80.92043,115.91128,80.92043,103.45419z M109.65089,98.77377c-1.224-3.38428-3.96021-5.32843-7.48853-5.32843 h-4.32043c-3.52832,0-6.26453,1.94415-7.48865,5.32843H109.65089z" transform="translate(261.87451 -122.31657)" stroke-width="0" stroke-linejoin="miter" stroke-miterlimit="2" fill="#858585" stroke="#858585"></path> </g>
        <g id="path50758" aria-label="g" transform="translate(0 303.472) translate(379.1780048 59.792) scale(0.96) translate(-384.13869 37.8)"> <path class="c1" d="M80.88429,103.45419c0-10.44092,7.12866-18.93762,17.6416-18.93762 c4.75232,0,8.49658,1.72815,11.23291,4.6084v-4.24841h9.36084v34.56299c0,10.29694-6.26465,16.56146-16.56152,16.56146h-2.95215 c-11.23303,0-16.56152-5.32843-16.56152-12.24104h9.36084c0,2.3042,0.86401,2.88025,7.20068,2.88025h2.95215 c5.7605,0,7.20068-1.44019,7.20068-7.20068v-1.3681c-2.73633,2.95227-6.48059,4.68042-11.23291,4.68042 C88.01295,122.75185,80.88429,114.18313,80.88429,103.45419z M97.80568,113.46304h4.32043 c4.89636,0,7.63269-3.02423,7.63269-7.84869v-4.32031c0-4.82446-2.73633-7.84869-7.63269-7.84869h-4.32043 c-4.89636,0-8.28064,3.74432-8.28064,10.00885S92.90932,113.46304,97.80568,113.46304z" transform="translate(303.2544 -122.31657)" stroke-width="0" stroke-linejoin="miter" stroke-miterlimit="2" fill="#858585" stroke="#858585"></path> </g>
        <g id="path50760" aria-label="i" transform="translate(0 303.472) translate(421.74800480000005 51.8432) scale(0.96) translate(-425.48244 46.08)"> <rect x="95.32033" y="76.2358" class="c3" width="9.36084" height="5.7605" transform="translate(330.162112 -122.315802)" stroke-width="0" stroke-linejoin="miter" stroke-miterlimit="2" fill="#424242" stroke="#424242"></rect> <polygon class="c1" points="104.60915,122.31979 95.32033,122.31979 95.32033,84.87655 104.68117,84.87655 " transform="translate(330.162112 -122.315802)" stroke-width="0" stroke-linejoin="miter" stroke-miterlimit="2" fill="#858585" stroke="#858585"></polygon> </g>
        <g id="path50762" aria-label="m" transform="translate(0 303.472) translate(436.64300000000003 59.792) scale(0.96) translate(-437.99806 37.8)"> <path class="c1" d="M80.20143,84.87655v3.02429c2.01636-2.3042,4.96851-3.38428,8.78491-3.38428 c5.90454,0,10.29688,1.80017,12.88916,5.61646c2.52002-3.88831,6.69653-5.61646,11.59277-5.61646 c10.2251,0,15.69751,5.40045,15.69751,16.92145v20.88177h-9.36084v-18.72156c0-6.69659-0.93604-9.86487-5.47241-9.86487h-4.03247 c-4.53638,0-5.61646,3.16827-5.61646,8.2807v20.30573h-9.36084v-18.72156c0-6.69659-0.93604-9.86487-5.47241-9.86487h-4.03247 c-4.53613,0-5.61646,3.16827-5.61646,8.2807v20.30573h-9.3606V84.87655H80.20143z" transform="translate(367.15724 -122.31656)" stroke-width="0" stroke-linejoin="miter" stroke-miterlimit="2" fill="#858585" stroke="#858585"></path> </g>
        <g id="path50764" aria-label="^R" transform="translate(0 303.472) translate(505.4030000000001 51.8432) scale(0.96) translate(-506.62306 46.08)"> <path class="c3" d="M92.51369,101.72592v-5.40039h11.8811c5.40039,0,7.4165-2.08813,7.4165-7.34473 c0-5.40039-2.16016-7.34448-7.4165-7.34448H88.04933v40.68347h-5.40039V76.23581h21.74585 c7.77661,0,12.81714,4.6084,12.81714,12.745c0,7.77673-4.75244,12.74512-12.81714,12.74512h-4.75244l17.71338,20.59387h-7.0564 l-17.71362-20.59387C92.58571,101.72593,92.51369,101.72593,92.51369,101.72592z" transform="translate(423.97412 -122.31581)" stroke-width="0" stroke-linejoin="miter" stroke-miterlimit="2" fill="#424242" stroke="#424242"></path> </g>
        <g id="path50766" aria-label="^e" transform="translate(0 303.472) translate(542.5730000000002 59.792) scale(0.96) translate(-542.34181 37.8)"> <path class="c3" d="M83.15236,103.52614c0-12.45703,6.48059-19.00952,16.84949-19.00952s16.84949,6.55249,16.84949,19.00952 v1.44019H88.69679c0.28809,9.07275,3.38428,12.16907,9.36084,12.16907h4.53638c3.74438,0,6.55261-2.37622,8.28076-7.05664h5.40039 c-2.01611,7.99268-7.92065,12.60107-16.27332,12.60107C89.20094,122.67982,83.15236,115.47926,83.15236,103.52614z M111.16286,99.9258c-0.72021-7.4165-3.74438-10.00879-9.2168-10.00879h-3.88843c-5.47241,0-8.4967,2.59229-9.2168,10.00879 H111.16286z" transform="translate(459.18945 -122.31662)" stroke-width="0" stroke-linejoin="miter" stroke-miterlimit="2" fill="#424242" stroke="#424242"></path> </g>
        <g id="path50768" aria-label="^x" transform="translate(0 303.472) translate(575.9468048000001 60.1376) scale(0.96) translate(-574.10619 37.44)"> <path class="c3" d="M90.06544,84.8766l9.93652,13.60913l9.93701-13.60913h6.62451l-13.10498,17.92957l14.25732,19.51367h-6.625 l-11.08887-15.19336L88.9131,122.31984h-6.62451l14.25732-19.51367L83.44044,84.8766H90.06544z" transform="translate(491.8176 -122.3166)" stroke-width="0" stroke-linejoin="miter" stroke-miterlimit="2" fill="#424242" stroke="#424242"></path> </g>
        <g id="path50770" aria-label="^h" transform="translate(0 303.472) translate(615.1580048000001 51.8432) scale(0.96) translate(-611.95119 46.08)"> <path class="c3" d="M89.74098,76.23586v11.88098c2.2323-2.44812,5.54456-3.60022,10.22498-3.60022 c11.37695,0,15.69739,5.8324,15.69739,16.92139v20.88184h-5.40051V99.78188c0-6.69666-2.37622-9.86487-6.9126-9.86487h-6.55261 c-4.53638,0-7.05664,3.16821-7.05664,8.28076v24.12207H84.3406V76.23586H89.74098z" transform="translate(527.61059 -122.31586)" stroke-width="0" stroke-linejoin="miter" stroke-miterlimit="2" fill="#424242" stroke="#424242"></path> </g>
        <g id="path50772" aria-label="^e" transform="translate(0 303.472) translate(651.1129999999999 59.792) scale(0.96) translate(-646.40431 37.8)"> <path class="c3" d="M83.15236,103.52614c0-12.45703,6.48059-19.00952,16.84949-19.00952s16.84949,6.55249,16.84949,19.00952 v1.44019H88.69679c0.28809,9.07275,3.38428,12.16907,9.36084,12.16907h4.53638c3.74438,0,6.55261-2.37622,8.28076-7.05664h5.40039 c-2.01611,7.99268-7.92065,12.60107-16.27332,12.60107C89.20094,122.67982,83.15236,115.47926,83.15236,103.52614z M111.16286,99.9258c-0.72021-7.4165-3.74438-10.00879-9.2168-10.00879h-3.88843c-5.47241,0-8.4967,2.59229-9.2168,10.00879 H111.16286z" transform="translate(563.25195 -122.31662)" stroke-width="0" stroke-linejoin="miter" stroke-miterlimit="2" fill="#424242" stroke="#424242"></path> </g>
        <g id="path50774" aria-label="^p" transform="translate(0 303.472) translate(689.3629999999999 59.792) scale(0.96) translate(-683.24806 37.8)"> <path class="c3" d="M88.26515,118.07143v12.88916h-5.40039V84.8766h5.40039v4.24841 c2.73633-2.88037,6.48047-4.6084,11.23291-4.6084c10.51294,0,17.6416,7.05652,17.6416,18.9375 c0,12.16919-7.12866,19.29773-17.6416,19.29773C94.74562,122.75185,91.00148,121.0237,88.26515,118.07143z M97.26588,116.99135 h4.68042c5.83252,0,9.79297-5.04041,9.79297-13.53723c0-8.4967-3.96045-13.53711-9.79297-13.53711h-4.68042 c-5.83252,0-9.00073,4.10437-9.00073,10.58496v5.90454C88.26515,112.88698,91.43336,116.99135,97.26588,116.99135z" transform="translate(600.3833 -122.31661)" stroke-width="0" stroke-linejoin="miter" stroke-miterlimit="2" fill="#424242" stroke="#424242"></path> </g>
        <g id="path50776" aria-label="^i" transform="translate(0 303.472) translate(728.1529999999999 51.8432) scale(0.96) translate(-720.65431 46.08)"> <rect x="97.30055" y="76.23586" class="c1" width="5.40063" height="5.40039" transform="translate(623.353758 -122.315863)" stroke-width="0" stroke-linejoin="miter" stroke-miterlimit="2" fill="#858585" stroke="#858585"></rect> <rect x="97.30055" y="84.8766" class="c3" width="5.40063" height="37.44324" transform="translate(623.353758 -122.315863)" stroke-width="0" stroke-linejoin="miter" stroke-miterlimit="2" fill="#424242" stroke="#424242"></rect> </g>
                  </g>
      <image xlink:href="" id="icon" style="display: none;" x="0" y="0"></image>
    </g>
  </g>
</svg>